<svg width="30" height="23" viewBox="0 0 30 23" fill="none" xmlns="http://www.w3.org/2000/svg">
<path d="M27.0588 0.676471C25.5571 0.202941 23.9065 0 22.3235 0C19.6853 0 16.8441 0.541176 14.8824 2.02941C12.9206 0.541176 10.0794 0 7.44118 0C4.80294 0 1.96176 0.541176 0 2.02941V21.85C0 22.1882 0.338235 22.5265 0.676471 22.5265C0.811765 22.5265 0.879412 22.4588 1.01471 22.4588C2.84118 21.5794 5.47941 20.9706 7.44118 20.9706C10.0794 20.9706 12.9206 21.5118 14.8824 23C16.7088 21.85 20.0235 20.9706 22.3235 20.9706C24.5559 20.9706 26.8559 21.3765 28.75 22.3912C28.8853 22.4588 28.9529 22.4588 29.0882 22.4588C29.4265 22.4588 29.7647 22.1206 29.7647 21.7824V2.02941C28.9529 1.42059 28.0735 1.01471 27.0588 0.676471ZM27.0588 18.9412C25.5706 18.4676 23.9471 18.2647 22.3235 18.2647C20.0235 18.2647 16.7088 19.1441 14.8824 20.2941V4.73529C16.7088 3.58529 20.0235 2.70588 22.3235 2.70588C23.9471 2.70588 25.5706 2.90882 27.0588 3.38235V18.9412Z" fill="#FFF5BF"/>
<path d="M22.3235 8.11767C23.5141 8.11767 24.6641 8.23943 25.7059 8.46943V6.41296C24.6371 6.21002 23.4871 6.08826 22.3235 6.08826C20.0235 6.08826 17.94 6.48061 16.2353 7.2112V9.45708C17.7641 8.5912 19.8882 8.11767 22.3235 8.11767Z" fill="#FFF5BF"/>
<path d="M16.2353 10.81V13.0559C17.7641 12.19 19.8882 11.7165 22.3235 11.7165C23.5141 11.7165 24.6641 11.8382 25.7059 12.0682V10.0118C24.6371 9.80884 23.4871 9.68707 22.3235 9.68707C20.0235 9.68707 17.94 10.093 16.2353 10.81Z" fill="#FFF5BF"/>
<path d="M22.3235 13.2994C20.0235 13.2994 17.94 13.6918 16.2353 14.4223V16.6682C17.7641 15.8023 19.8882 15.3288 22.3235 15.3288C23.5141 15.3288 24.6641 15.4506 25.7059 15.6806V13.6241C24.6371 13.4076 23.4871 13.2994 22.3235 13.2994Z" fill="#FFF5BF"/>
</svg>
